# xmcd
#
# Track frame offsets: 
#        150
#        19877
#        42436
#        56947
#        74742
#        92678
#        111304
#        131082
#        148052
#        166014
#        187371
#        206991
#        227657
#        246113
#        264681
#        280863
#        298187
#        316588
#        336705
#
# Disc length: 4758 seconds
#
# Revision: 1
# Processed by: cddbd v1.5.2PL0 Copyright (c) Steve Scherf et al.
# Submitted via: ExactAudioCopyFreeDBPlugin 1.0
#
DISCID=3f129413
DTITLE=Various Artist - Classic Soul Anthems Disc 3 - The 80s
DYEAR=2010
DGENRE=Soul
TTITLE0=Anita Baker - Sweet Love
TTITLE1=Randy Crawford - One Day I'll Fly Away
TTITLE2=Lionel Richie - Stuck On You
TTITLE3=George Benson - Lady Love Me (One More Time)
TTITLE4=Marvin Gaye - Sexual Healing
TTITLE5=Smokey Robinson - Being With You
TTITLE6=Atlantic Star - Secret Lovers
TTITLE7=Mary Jane Girls - All Night Long
TTITLE8=Kool And The Gang - Cherish
TTITLE9=Rufus And Chaka Khan - Ain't Nobody
TTITLE10=Sister Sledge - Thinking Of You
TTITLE11=Phylliss Nelson - Move Closer
TTITLE12=Pieces Of A Dream - Warm Weather
TTITLE13=Jeffery Osbourne - On The Wings Of Love
TTITLE14=Patti Austen - Baby Come To Me
TTITLE15=Luther Vandross - Never Too Much
TTITLE16=Gregory Abbott - Shake You Down
TTITLE17=Chaka Khan - I know You, I Live You
TTITLE18=Simply Red - Holding Back The Years
EXTD=YEAR: 2010
EXTT0=
EXTT1=
EXTT2=
EXTT3=
EXTT4=
EXTT5=
EXTT6=
EXTT7=
EXTT8=
EXTT9=
EXTT10=
EXTT11=
EXTT12=
EXTT13=
EXTT14=
EXTT15=
EXTT16=
EXTT17=
EXTT18=
PLAYORDER=
